# xmcd
#
# Track frame offsets:
# 150
# 17668
# 35090
# 60746
# 79727
# 98514
# 115350
# 136157
# 153412
# 169594
# 184957
#
# Disc length: 2748 seconds
#
#
# Revision: 0
# Processed by: cddbd v1.5.2PL0 Copyright (c) Steve Scherf et al.
# Submitted via: FreeRIP 2.945 
#
DISCID=880aba0b
DTITLE=Bill Anderson - Fine Wine
DYEAR=1900
DGENRE=Country
TTITLE0=Good Love And A Bottle Of Wine
TTITLE1=The Paper
TTITLE2=My Van
TTITLE3=Tips Of My Fingers
TTITLE4=Forgiveness
TTITLE5=Way Too Much Time On My Hands
TTITLE6=Twenty Years
TTITLE7=No Fair Falling In Love
TTITLE8=Before
TTITLE9=It Feels So Good
TTITLE10=Now That's Love
EXTD=
EXTT0=
EXTT1=
EXTT2=
EXTT3=
EXTT4=
EXTT5=
EXTT6=
EXTT7=
EXTT8=
EXTT9=
EXTT10=
PLAYORDER=
